<?xml version="1.0" encoding="UTF-8"?>
<!DOCTYPE svg PUBLIC "-//W3C//DTD SVG 1.1//EN" "http://www.w3.org/Graphics/SVG/1.1/DTD/svg11.dtd">
<!-- Creator: CorelDRAW X7 -->
<svg xmlns="http://www.w3.org/2000/svg" xml:space="preserve" width="1171px" height="731px" version="1.1" style="shape-rendering:geometricPrecision; text-rendering:geometricPrecision; image-rendering:optimizeQuality; fill-rule:evenodd; clip-rule:evenodd"
viewBox="0 0 13303 8306"
 xmlns:xlink="http://www.w3.org/1999/xlink">
 <defs>
  <style type="text/css">
   <![CDATA[
    .fil0 {fill:#F0EBE8}
   ]]>
  </style>
 </defs>
 <g id="Слой_x0020_1">
  <metadata id="CorelCorpID_0Corel-Layer"/>
  <path class="fil0" d="M4377 4276c0,1828 1902,2732 3300,2004 484,-251 951,-785 1112,-1373 121,-446 94,-1068 -79,-1452 -616,-1378 -1854,-1367 -1895,-1404 -19,-16 -42,15 26,-98 25,-40 47,-80 73,-123 43,-71 84,-158 134,-241 92,-156 176,-323 278,-485 99,-159 194,-327 282,-481 43,-75 289,-444 244,-484 -40,-36 -1125,-13 -1419,-15l-1706 2943c-187,337 -350,736 -350,1209zm-3076 3898c28,87 98,132 193,132 94,0 165,-49 192,-134 8,-27 14,-74 14,-124l0 -43c0,-5 -3,-8 -8,-8l-180 0c-5,0 -9,3 -9,8l0 48c0,5 4,9 9,9l109 0c4,0 5,1 5,5 0,42 -5,69 -11,88 -17,54 -63,82 -121,82 -64,0 -104,-30 -122,-84 -7,-21 -11,-52 -11,-139 0,-86 4,-117 11,-138 18,-54 58,-84 122,-84 60,0 97,24 124,75 2,5 7,6 11,4l50 -24c4,-3 5,-7 3,-12 -28,-62 -89,-112 -188,-112 -95,0 -165,45 -193,132 -10,32 -15,66 -15,159 0,93 5,127 15,160zm6814 132c136,0 206,-72 206,-170 0,-93 -56,-143 -166,-158l-27 -4c-88,-12 -119,-43 -119,-91 0,-54 38,-91 107,-91 48,0 90,14 136,42 4,3 8,3 12,-1l28 -46c3,-4 2,-8 -2,-12 -41,-30 -105,-52 -172,-52 -112,0 -184,65 -184,165 0,89 57,141 166,156l28 4c91,12 118,44 118,93 0,57 -46,96 -124,96 -65,0 -121,-29 -158,-58 -4,-4 -8,-4 -11,1l-37 43c-3,4 -2,9 1,12 41,38 119,71 198,71zm790 -10c5,0 8,-3 8,-8l0 -482c0,-3 2,-5 5,-5l155 0c5,0 8,-3 8,-8l0 -52c0,-5 -3,-9 -8,-9l-393 0c-5,0 -8,4 -8,9l0 52c0,5 3,8 8,8l154 0c4,0 5,2 5,5l0 482c0,5 4,8 9,8l57 0zm749 10c96,0 164,-45 193,-132 10,-33 15,-67 15,-160 0,-93 -5,-127 -15,-159 -29,-87 -97,-132 -193,-132 -94,0 -162,45 -191,132 -11,32 -15,66 -15,159 0,93 4,127 15,160 29,87 97,132 191,132zm0 -69c-62,0 -102,-30 -119,-84 -7,-21 -13,-57 -13,-139 0,-81 6,-117 13,-138 17,-54 57,-84 119,-84 63,0 103,30 121,84 6,21 12,57 12,138 0,82 -6,118 -12,139 -18,54 -58,84 -121,84zm1019 59c6,0 8,-4 5,-9l-120 -239c68,-21 111,-77 111,-153 0,-98 -71,-163 -177,-163l-204 0c-5,0 -8,4 -8,9l0 547c0,5 3,8 8,8l57 0c5,0 9,-3 9,-8l0 -225c0,-4 1,-5 5,-5l124 0 113 230c2,6 5,8 11,8l66 0zm-182 -307l-132 0c-4,0 -5,-2 -5,-5l0 -178c0,-3 1,-5 5,-5l132 0c65,0 104,35 104,94 0,59 -39,94 -104,94zm599 299c0,5 4,8 9,8l57 0c5,0 8,-3 8,-8l0 -547c0,-5 -3,-9 -8,-9l-57 0c-5,0 -9,4 -9,9l0 547zm463 0c-2,5 0,8 5,8l58 0c5,0 9,-2 11,-8l43 -123 229 0 43 123c1,6 5,8 10,8l59 0c4,0 7,-3 5,-8l-193 -547c-2,-5 -5,-9 -11,-9l-54 0c-6,0 -8,4 -10,9l-195 547zm141 -191l90 -256 2 0 88 256 -180 0zm-5516 200c0,5 3,9 8,9l190 0c96,0 159,-41 184,-121 10,-30 15,-61 15,-161 0,-101 -5,-132 -15,-162 -25,-80 -88,-121 -184,-121l-190 0c-5,0 -8,4 -8,9l0 547zm74 -65l0 -417c0,-3 1,-5 5,-5l103 0c68,0 111,23 129,77 7,21 12,49 12,137 0,87 -5,115 -12,136 -18,54 -61,77 -129,77l-103 0c-4,0 -5,-2 -5,-5zm741 65c0,5 4,9 9,9l57 0c5,0 8,-4 8,-9l0 -547c0,-5 -3,-9 -8,-9l-57 0c-5,0 -9,4 -9,9l0 547zm-4875 -9c0,5 4,8 8,8l58 0c5,0 8,-3 8,-8l0 -547c0,-5 -3,-9 -8,-9l-58 0c-4,0 -8,4 -8,9l0 547zm699 18c95,0 163,-45 192,-132 11,-33 15,-67 15,-160 0,-93 -4,-127 -15,-159 -29,-87 -97,-132 -192,-132 -95,0 -163,45 -192,132 -11,32 -15,66 -15,159 0,93 4,127 15,160 29,87 97,132 192,132zm0 -69c-62,0 -102,-30 -120,-84 -6,-21 -12,-57 -12,-139 0,-81 6,-117 12,-138 18,-54 58,-84 120,-84 63,0 103,30 120,84 7,21 13,57 13,138 0,82 -6,118 -13,139 -17,54 -57,84 -120,84zm1019 59c5,0 8,-4 5,-9l-121 -239c68,-21 111,-77 111,-153 0,-98 -71,-163 -176,-163l-204 0c-5,0 -9,4 -9,9l0 547c0,5 4,8 9,8l57 0c5,0 8,-3 8,-8l0 -225c0,-4 2,-5 5,-5l125 0 112 230c3,6 5,8 11,8l67 0zm-183 -307l-132 0c-3,0 -5,-2 -5,-5l0 -178c0,-3 2,-5 5,-5l132 0c66,0 105,35 105,94 0,59 -39,94 -105,94zm600 299c0,5 3,8 8,8l53 0c5,0 8,-3 8,-8l0 -421 2 0 257 421c3,7 8,8 14,8l53 0c5,0 8,-3 8,-8l0 -547c0,-5 -3,-9 -8,-9l-52 0c-5,0 -9,4 -9,9l0 423 -3 0 -256 -423c-3,-7 -7,-9 -14,-9l-53 0c-5,0 -8,4 -8,9l0 547zm841 0c0,5 4,8 9,8l57 0c5,0 8,-3 8,-8l0 -547c0,-5 -3,-9 -8,-9l-57 0c-5,0 -9,4 -9,9l0 547zm1312 -4932c-169,62 -180,43 -333,151 -839,587 -275,1958 779,1718 705,-160 1089,-1155 322,-1726 -173,-129 -516,-236 -768,-143zm-6111 -1922c208,41 425,80 640,129l618 134c49,-81 58,-209 222,-321 111,-76 295,-113 460,-52 233,87 441,387 302,723 -151,364 -456,503 -818,583 -121,27 -106,38 -152,131 -46,94 -166,306 -185,397 46,31 97,35 153,40 689,68 1441,488 1362,1327 -73,774 -1382,952 -1645,88l-1251 302c-14,162 200,548 260,636 1028,1530 3400,1136 3878,-605 145,-529 38,-1122 -188,-1523 -57,-100 -106,-169 -182,-262 -307,-374 -259,-160 -76,-543 298,-623 208,-1323 -128,-1828l-200 -243c-171,-199 -579,-435 -883,-501 -494,-107 -1043,-32 -1455,279 -195,148 -312,267 -459,463 -105,137 -279,469 -273,646zm8767 2008c44,33 650,358 708,346 39,-9 327,-268 504,-357 212,-108 467,-138 739,-132 316,6 438,82 608,245 872,836 -17,1951 -1037,1617 -104,-34 -188,-97 -261,-160 -323,-280 -9,-325 -857,-50 -195,63 -415,124 -612,195 -11,146 281,510 369,600 182,184 320,299 554,440 467,281 1012,366 1661,284 237,-30 527,-160 719,-268 218,-123 393,-281 554,-440 306,-302 592,-843 592,-1397l0 -178c0,-1003 -903,-1887 -1757,-2077 -237,-53 -635,-75 -892,-38 -101,15 -208,53 -280,58l78 -739c718,-4 1658,17 2331,-6l3 -1031c0,-258 92,-231 -389,-230l-2751 0c-324,1 -259,-158 -336,639 -30,310 -57,589 -86,893 -26,279 -185,1640 -162,1786z"/>
 </g>
</svg>
