<?xml version="1.0" encoding="UTF-8"?>
<!DOCTYPE svg PUBLIC "-//W3C//DTD SVG 1.1//EN" "http://www.w3.org/Graphics/SVG/1.1/DTD/svg11.dtd">
<!-- Creator: CorelDRAW X7 -->
<svg xmlns="http://www.w3.org/2000/svg" xml:space="preserve" width="873px" height="873px" version="1.1" style="shape-rendering:geometricPrecision; text-rendering:geometricPrecision; image-rendering:optimizeQuality; fill-rule:evenodd; clip-rule:evenodd"
viewBox="0 0 4408 4408"
 xmlns:xlink="http://www.w3.org/1999/xlink">
 <defs>
  <style type="text/css">
   <![CDATA[
    .fil0 {fill:#F0EBE8}
   ]]>
  </style>
 </defs>
 <g id="Слой_x0020_1">
  <metadata id="CorelCorpID_0Corel-Layer"/>
  <g id="_721750560">
   <g>
    <g>
     <g>
      <path class="fil0" d="M3274 1785c94,0 177,19 249,57 71,38 127,90 166,157l-214 79c-27,-33 -58,-60 -95,-78 -37,-19 -77,-29 -120,-29 -31,0 -57,5 -77,16 -20,10 -30,24 -30,40 0,17 13,30 38,39 25,9 76,21 151,36 43,9 81,18 114,27 32,10 64,22 94,36 30,14 55,30 75,47 19,18 34,39 46,63 11,24 17,51 17,81 0,79 -36,143 -106,193 -70,50 -165,75 -284,75 -104,0 -194,-20 -270,-60 -76,-40 -133,-94 -172,-162l213 -77c22,33 54,60 96,81 41,21 90,31 144,31 34,0 61,-5 81,-15 20,-10 30,-24 30,-41 0,-18 -14,-32 -43,-42 -29,-11 -86,-24 -171,-41 -107,-22 -187,-52 -241,-91 -53,-39 -80,-91 -80,-156 0,-51 16,-97 50,-138 34,-40 81,-72 140,-94 59,-23 126,-34 199,-34z"/>
     </g>
    </g>
    <g>
     <g>
      <path class="fil0" d="M865 1813l-497 0 0 383c0,50 -2,95 0,133l0 295 270 0 0 -161c222,-34 526,-184 526,-375l0 0c0,-165 -134,-275 -299,-275zm-3 292c0,85 -176,139 -176,139l-39 15 0 -246 143 0c40,0 72,32 72,72l0 20z"/>
      <path class="fil0" d="M2546 1813l-496 0 0 383c0,50 -2,95 0,133l0 295 269 0 0 -161c222,-34 527,-184 527,-375l0 0c0,-165 -134,-275 -300,-275zm-3 292c0,85 -176,139 -176,139l-39 15 0 -246 144 0c39,0 71,32 71,72l0 20z"/>
      <polygon class="fil0" points="1503,2304 1855,2304 1855,2123 1503,2123 1503,2006 1954,2006 1954,1804 1244,1804 1244,2621 1961,2621 1961,2419 1503,2419 "/>
      <polygon class="fil0" points="3782,1870 3782,2624 4052,2624 4052,1790 "/>
     </g>
    </g>
    <g>
     <path class="fil0" d="M4049 1409c-266,-72 -569,-112 -892,-112 -321,0 -624,40 -889,111 -42,12 -84,24 -125,37 0,0 -1,1 -1,1 -255,68 -545,106 -853,106 -339,0 -657,-46 -930,-128 299,-727 1014,-1239 1848,-1239 316,0 614,74 880,204 431,212 775,575 962,1020z"/>
     <path class="fil0" d="M359 2999c266,72 570,112 892,112 322,0 624,-40 889,-111 42,-12 84,-24 125,-37 0,0 1,0 2,-1 255,-68 544,-106 852,-106 339,0 657,47 930,128 -299,727 -1014,1239 -1848,1239 -316,0 -614,-73 -880,-204 -431,-212 -775,-575 -962,-1020z"/>
    </g>
    <path class="fil0" d="M2204 4408c-1215,0 -2204,-989 -2204,-2204 0,-1215 989,-2204 2204,-2204 1215,0 2204,989 2204,2204 0,1215 -989,2204 -2204,2204zm0 -4341c-1178,0 -2137,959 -2137,2137 0,1178 959,2137 2137,2137 1178,0 2137,-959 2137,-2137 0,-1178 -959,-2137 -2137,-2137z"/>
   </g>
  </g>
 </g>
</svg>
