<?xml version="1.0" encoding="UTF-8"?>
<!DOCTYPE svg PUBLIC "-//W3C//DTD SVG 1.1//EN" "http://www.w3.org/Graphics/SVG/1.1/DTD/svg11.dtd">
<!-- Creator: CorelDRAW X7 -->
<svg xmlns="http://www.w3.org/2000/svg" xml:space="preserve" width="1044px" height="194px" version="1.1" style="shape-rendering:geometricPrecision; text-rendering:geometricPrecision; image-rendering:optimizeQuality; fill-rule:evenodd; clip-rule:evenodd"
viewBox="0 0 15945 2956"
 xmlns:xlink="http://www.w3.org/1999/xlink">
 <defs>
  <style type="text/css">
   <![CDATA[
    .fil0 {fill:#F0EBE8}
   ]]>
  </style>
 </defs>
 <g id="Слой_x0020_1">
  <metadata id="CorelCorpID_0Corel-Layer"/>
  <g id="_572434664">
   <g>
    <g>
     <path class="fil0" d="M1031 499c188,0 386,60 560,168l82 -507c-190,-104 -402,-160 -633,-160 -414,0 -784,179 -852,593 -117,747 859,709 810,1006 -17,110 -168,157 -328,157 -202,0 -416,-66 -581,-167l-89 532c204,99 421,146 689,146 450,0 809,-164 883,-607 129,-784 -866,-714 -824,-1012 19,-107 132,-149 283,-149l0 0 0 0zm0 0l0 0 0 0z"/>
    </g>
    <g>
     <path class="fil0" d="M3785 753l-305 824 -108 -824 -861 0 -306 507 -106 0 184 -1161 -483 0 -325 2079 480 0 80 -499 107 0 169 499 506 0 -247 -683 344 -532 268 1207c-59,121 -97,170 -149,210 -61,38 -132,57 -232,35l-64 414c207,55 386,28 531,-63 132,-88 239,-221 319,-404l744 -1609 -546 0 0 0 0 0zm2415 -654l-510 0 -215 1387c-29,193 -138,282 -316,282 -157,0 -237,-73 -207,-257l220 -1412 -509 0 -224 1434c-72,471 217,734 676,734 496,0 783,-211 857,-709l228 -1459 0 0 0 0 0 0zm775 690c-173,0 -283,91 -349,185l21 -142 -424 0 -317 2124 468 0 117 -776c55,80 156,150 311,150 309,0 497,-298 560,-744 65,-409 -28,-797 -387,-797l0 0 0 0 0 0zm-71 768c-33,240 -99,345 -215,345 -66,0 -118,-43 -141,-105l74 -476c42,-61 98,-103 169,-103 118,0 146,128 113,339l0 0 0 0zm2247 -1458l-1080 2168 193 0 292 -579 904 0 99 579 184 0 -386 -2168 -206 0 0 0 0 0zm-515 1420l476 -951c39,-85 80,-173 114,-257 13,84 19,168 36,249l170 959 -796 0 0 0 0 0zm1205 748l167 0 229 -1478 -166 0 -230 1478zm455 -1970c-73,0 -141,47 -155,136 -17,104 49,159 132,159 72,0 143,-38 160,-132 9,-102 -55,-163 -137,-163l0 0 0 0 0 0zm925 492c-228,-8 -430,72 -556,306l46 -276 -154 0 -223 1448 166 0 140 -878c118,-316 322,-444 551,-429l30 -171 0 0 0 0 0 0zm332 -789l-332 2267 160 0 332 -2267 -160 0zm160 2267l167 0 226 -1478 -167 0 -226 1478zm452 -1970c-70,0 -139,47 -155,136 -14,104 49,159 133,159 71,0 145,-38 159,-132 11,-102 -52,-163 -137,-163l0 0 0 0 0 0zm909 492c-217,0 -386,96 -493,236l36 -203 -168 0 -244 1445 183 0 170 -1007c87,-160 262,-314 466,-314 183,0 310,104 268,342l-165 979 184 0 164 -974c52,-306 -127,-504 -401,-504l0 0 0 0 0 0zm1233 0c-358,0 -635,280 -709,727 -75,456 130,751 574,751 118,0 243,-22 363,-73l26 -162c-122,56 -240,80 -372,80 -291,0 -455,-158 -426,-502l955 0c127,-468 -19,-821 -411,-821l0 0 0 0zm270 673l-791 0c43,-183 184,-513 516,-513 247,0 336,203 275,513l0 0 0 0zm945 -522c150,0 277,33 393,103l30 -158c-117,-61 -268,-96 -433,-96 -287,0 -527,118 -568,344 -86,482 791,414 728,759 -31,156 -197,222 -419,222 -179,0 -337,-38 -459,-118l-30 158c117,76 287,113 494,113 289,0 551,-94 598,-351 89,-491 -791,-407 -728,-755 28,-149 193,-221 394,-221l0 0 0 0 0 0zm0 0l0 0 0 0z"/>
    </g>
   </g>
  </g>
 </g>
</svg>
