<?xml version="1.0" encoding="UTF-8"?>
<!DOCTYPE svg PUBLIC "-//W3C//DTD SVG 1.1//EN" "http://www.w3.org/Graphics/SVG/1.1/DTD/svg11.dtd">
<!-- Creator: CorelDRAW X7 -->
<svg xmlns="http://www.w3.org/2000/svg" xml:space="preserve" width="1533px" height="234px" version="1.1" style="shape-rendering:geometricPrecision; text-rendering:geometricPrecision; image-rendering:optimizeQuality; fill-rule:evenodd; clip-rule:evenodd"
viewBox="0 0 15216 2318"
 xmlns:xlink="http://www.w3.org/1999/xlink">
 <defs>
  <style type="text/css">
   <![CDATA[
    .fil0 {fill:#F0EBE8}
   ]]>
  </style>
 </defs>
 <g id="Слой_x0020_1">
  <metadata id="CorelCorpID_0Corel-Layer"/>
  <g id="_567764640">
   <path class="fil0" d="M11608 1034l868 0 0 62 -868 0 0 -62zm848 -207l-62 0c46,-64 15,-64 62,0zm-331 -21c94,-22 54,-46 103,21 -14,0 -47,1 -60,-2 -40,-9 -22,-5 -43,-19zm-186 21l-83 0c45,-61 38,-61 83,0zm-310 -21l62 0 0 21 -62 0 0 -21zm889 0c-64,-46 -34,14 -42,-82l62 0c-23,47 -12,18 -20,82zm-972 -82c81,21 57,11 41,82 -14,-21 0,8 -23,-39 0,-1 -15,-37 -18,-43zm-21 -145l21 0 0 62 -21 0 0 -62zm993 21c1,-7 22,-5 24,-4 3,1 35,-45 9,5 0,0 -3,3 -3,4 -1,0 -7,1 -7,1 -16,0 -29,36 -23,-6zm-248 -62c81,1 48,-6 103,20 -20,77 -21,27 -41,104l-17 -25c-3,-3 -15,-19 -18,-24 -29,-48 -14,5 -27,-75zm-228 82l43 61c12,12 46,33 61,43 -48,65 -83,31 -83,103 0,82 59,62 207,62l20 -83c-29,-39 -4,-1 -29,-32 -26,-32 -16,-6 -33,-50 43,-23 49,-29 104,-42l44 60c-55,79 -62,29 -65,147l186 0c-36,68 24,64 -186,62l-643 2c-78,-7 -63,3 -81,-64l187 0c-4,-145 -19,-57 -83,-145 32,-45 3,-25 62,-41l0 -83c-62,-16 -46,0 -62,-62 93,-52 111,-6 124,0 -14,54 8,23 -41,42 2,97 -22,81 62,103 -15,170 -69,-17 -21,186l186 0c0,-172 5,-74 -62,-165 64,-88 79,0 83,-145l-62 0 0 -62c114,-28 70,-43 165,21 -50,68 -36,14 -83,82zm538 -289c1,-7 22,-5 24,-4 3,1 35,-45 9,5l-10 5c-16,0 -29,37 -23,-6zm-1117 0c0,-52 33,-5 13,0 0,0 -13,58 -13,0zm269 -186c2,95 80,165 0,165 -85,0 -76,-110 0,-165zm620 0c62,45 28,-11 49,78 38,151 -74,70 -111,46 30,-45 48,-61 62,-124zm-310 103c-47,0 -24,-7 -82,-21l30 -73c1,-5 3,-11 5,-15 26,-71 -23,-53 68,-77 20,84 21,84 62,145 -8,4 -80,41 -83,41zm-144 -62c0,73 42,89 103,103 -17,73 -21,68 -21,166 -153,81 -59,128 -20,186 -122,32 -5,46 -124,21 19,-72 41,-55 41,-83 0,-94 -50,-19 -88,-139 -6,-20 -9,-40 -15,-68 76,-114 93,-62 14,-200 -37,-66 -17,-49 -77,-89 -57,38 -196,221 -20,268 0,277 -100,183 0,331 -81,17 -23,17 -104,0 37,-77 39,-134 -62,-144 -7,-85 -20,-47 -20,-125 0,-38 104,-40 -15,-171 -40,-45 -37,-50 -109,-56 0,178 165,558 165,972l972 0c0,-308 168,-754 186,-972 -120,10 -166,91 -166,207l42 0c-6,71 -18,97 -64,143 -71,73 -63,62 -19,146 -194,45 -62,-45 -62,-103 0,-112 -41,63 -41,-228l64 -38c3,-3 8,-9 10,-12 2,-2 5,-8 8,-12 -9,-39 -25,-98 -37,-128 -34,-81 -14,-40 -87,-78 -3,3 -9,3 -10,9l-95 199 64 60c-48,101 2,116 -103,187 7,83 33,74 0,144 -61,-16 -34,-8 -83,-41 28,-41 38,-57 62,-103 -3,-4 -8,-15 -9,-12 -2,4 -8,-8 -10,-11 -3,-3 -16,-17 -19,-22 -57,-69 -65,-99 -65,-204l103 -82c-62,-118 -69,-156 -145,-207 -81,43 -46,-7 -86,79 -53,114 -58,73 -58,107z"/>
   <path class="fil0" d="M7639 145l0 2129 82 0 20 -1983 1423 1905c49,71 35,78 149,78l0 -2129c0,-59 -9,-39 -41,-62 -65,48 -42,95 -41,206 1,352 -30,1731 20,1861 -107,-67 -759,-991 -913,-1196l-539 -718c-3,-3 -7,-7 -10,-10 -9,-11 -150,-240 -150,-81z"/>
   <path class="fil0" d="M2098 145l-41 2129c468,0 937,0 1405,0 -9,-111 -32,-83 -245,-83l-1016 0c-43,-110 -43,-881 0,-992l1075 0 0 -83 -1075 0c-42,-109 -42,-841 0,-951 14,15 -75,20 108,22l1112 -1 0 -103 -1261 0c-48,0 -62,14 -62,62z"/>
   <path class="fil0" d="M3752 1344c-46,-118 -46,-1061 0,-1179 39,44 344,21 413,21 392,0 502,-70 709,203 162,213 151,478 36,711l-132 156c-235,162 -586,88 -1026,88zm-103 -1199l0 2067c0,63 24,57 82,62 0,-193 -36,-700 21,-847l713 0 480 791c40,62 36,56 130,56 -80,-150 -472,-759 -496,-847 755,-176 597,-1344 -124,-1344l-755 0c-37,0 -51,14 -51,62z"/>
   <path class="fil0" d="M6274 165c192,0 288,8 455,104l214 182c19,25 6,11 23,37 69,101 115,148 164,289 97,281 104,537 0,823 -20,56 -14,35 -32,74 -2,5 -5,10 -7,15 -52,106 -147,256 -246,329 -85,61 -185,133 -290,165 -245,72 -545,6 -720,-148l-62 -66c-281,-292 -393,-737 -261,-1136 57,-175 134,-323 269,-434 72,-59 62,-64 137,-114 99,-65 200,-120 356,-120zm-889 869c0,265 -18,391 97,647l126 209c3,3 6,9 8,12 23,32 17,31 53,68l108 103c376,340 932,272 1245,-126 90,-113 217,-369 240,-525 104,-694 -329,-1339 -864,-1339l-165 0c-333,0 -605,313 -741,599 -2,4 -5,9 -7,14l-100 338z"/>
   <path class="fil0" d="M10512 227l476 1200 -972 0c20,-87 430,-1123 496,-1200zm-930 2047c81,-2 72,30 142,-148 28,-71 57,-141 83,-207l126 -306c17,-36 25,-69 42,-104l1054 0 288 726c41,58 14,37 105,39l-779 -1908c-35,-86 -91,-201 -110,-283 -92,7 -74,12 -101,84l-710 1768c-36,89 -108,204 -140,339z"/>
   <path class="fil0" d="M961 2274l868 -2191c-97,8 -75,17 -106,104 -2,5 -4,11 -6,15l-688 1686c-20,49 -34,82 -54,132 -31,79 -15,85 -76,130 -23,-99 -67,-178 -104,-269l-608 -1500c-20,-50 -26,-79 -49,-133l-61 -131c-60,-69 -89,-36 -73,29l779 1913c20,49 35,92 53,133 30,70 27,80 125,82z"/>
   <path class="fil0" d="M14027 2212l-289 0c0,-186 -35,-663 20,-806 123,0 302,-16 391,23 292,127 266,597 53,730 -58,36 -90,53 -175,53zm-372 83c174,0 416,23 537,-42 29,-15 109,-69 134,-97 145,-157 160,-536 -14,-705 -25,-24 -114,-83 -150,-97 -109,-43 -378,-31 -507,-31l0 972z"/>
   <path class="fil0" d="M13634 620c0,-412 450,-627 665,-207 23,44 10,8 24,59 24,85 17,169 -6,253 -77,289 -400,372 -595,138 -29,-34 -40,-56 -55,-106 -6,-23 -33,-129 -33,-137zm-82 -41c0,41 17,139 30,177l44 103c183,364 794,279 794,-280 0,-102 -60,-245 -119,-314 -173,-205 -430,-215 -607,-23 -80,88 -142,213 -142,337z"/>
   <path class="fil0" d="M11525 1757c0,107 -9,149 28,241l141 194c4,3 9,6 12,9l33 27c81,63 211,90 341,63 73,-14 144,-71 210,-120 0,124 -29,114 62,124l0 -496c-289,0 -280,-23 -289,82l228 0c-1,77 6,142 -23,206 -13,29 5,7 -24,41 -64,74 -237,134 -408,66 -50,-19 -68,-21 -115,-71 -3,-4 -7,-9 -10,-12 -74,-86 -107,-162 -120,-276 -11,-100 43,-222 91,-294 110,-164 320,-197 485,-95 101,63 31,114 165,125 -21,-247 -398,-312 -581,-191l-36 25c-60,41 -66,39 -103,104 -48,84 -87,150 -87,248z"/>
   <path class="fil0" d="M14668 641c-43,-110 -43,-345 0,-455 99,0 232,-17 318,13 53,19 76,37 107,80 56,79 73,286 -86,349 -89,35 -237,13 -339,13zm-103 434l82 0c0,-114 -18,-252 21,-351 283,0 464,38 534,-211 60,-213 -82,-410 -307,-410l-330 0 0 972z"/>
   <path class="fil0" d="M14565 2295l640 0 0 -62 -537 0c-51,-131 10,-285 -41,-393l436 3c87,-11 57,20 60,-86l-496 0c50,-105 -9,-243 41,-372l537 0c-12,-46 -4,-62 -62,-62l-578 0 0 972z"/>
   <path class="fil0" d="M12497 1840c0,123 49,278 110,347l100 84c201,111 596,41 596,-410l0 -538c-106,9 -84,24 -83,144 1,83 1,166 1,249 0,207 11,301 -78,418 -99,130 -384,141 -485,4 -123,-166 -78,-543 -78,-815l-83 0 0 517z"/>
   <path class="fil0" d="M12890 186l331 0 0 889 82 0 0 -889 331 0 0 -83 -682 0c-59,0 -62,24 -62,83z"/>
   <polygon class="fil0" points="13448,2295 13510,2295 13510,1323 13448,1323 "/>
  </g>
 </g>
</svg>
