<?xml version="1.0" encoding="UTF-8"?>
<!DOCTYPE svg PUBLIC "-//W3C//DTD SVG 1.1//EN" "http://www.w3.org/Graphics/SVG/1.1/DTD/svg11.dtd">
<!-- Creator: CorelDRAW X7 -->
<svg xmlns="http://www.w3.org/2000/svg" xml:space="preserve" width="1007px" height="225px" version="1.1" style="shape-rendering:geometricPrecision; text-rendering:geometricPrecision; image-rendering:optimizeQuality; fill-rule:evenodd; clip-rule:evenodd"
viewBox="0 0 12439 2776"
 xmlns:xlink="http://www.w3.org/1999/xlink">
 <defs>
  <style type="text/css">
   <![CDATA[
    .fil0 {fill:#F0EBE8;fill-rule:nonzero}
   ]]>
  </style>
 </defs>
 <g id="Слой_x0020_1">
  <metadata id="CorelCorpID_0Corel-Layer"/>
  <g id="_572712064">
   <g id="_693128784">
    <path class="fil0" d="M12310 406c37,62 18,142 -44,179 -62,38 -143,19 -181,-43 -59,-100 -132,-168 -219,-214l0 0 0 0c-90,-45 -198,-65 -324,-67 -85,0 -162,16 -227,39 -92,31 -162,78 -202,111 -49,39 -119,37 -165,-2 -41,-32 -109,-77 -201,-109 -65,-23 -142,-39 -227,-39 -126,2 -234,22 -324,67l-6 4c-84,45 -154,113 -214,210l-4 6c-50,85 -76,176 -84,271 -10,112 8,227 43,345 21,70 -20,143 -88,164 -70,21 -144,-19 -164,-88 -45,-149 -65,-297 -53,-442 11,-133 50,-263 122,-384l4 -8c86,-140 190,-241 318,-306l8 -5c127,-65 274,-95 442,-95 118,0 222,22 311,51 81,28 148,64 201,97 51,-33 120,-69 199,-97 89,-29 195,-51 311,-51 168,0 315,30 442,95l0 0c131,67 238,168 326,311l0 0z"/>
    <path class="fil0" d="M11089 2763c-65,31 -144,4 -176,-61 -32,-65 -4,-145 61,-176 187,-92 445,-299 677,-562 193,-219 364,-473 456,-725 2,-6 6,-19 13,-37 4,-14 9,-27 11,-38l3 -4c32,-117 48,-231 39,-340 -8,-98 -36,-193 -88,-278 -37,-63 -17,-144 46,-181 62,-37 143,-17 180,45 73,123 114,255 125,394 11,140 -8,286 -52,433l-1 7c-5,16 -10,32 -14,44 -2,8 -8,23 -16,44 -104,288 -292,569 -504,811 -255,287 -545,518 -760,624l0 0z"/>
    <path class="fil0" d="M416 1342l-416 0 0 39 163 0 0 1321 -163 0 0 40 619 0c197,0 355,-31 461,-88 114,-63 181,-175 181,-296 0,-126 -78,-246 -190,-300 -76,-38 -184,-66 -271,-67 252,-46 383,-154 383,-316 0,-214 -218,-333 -616,-333l-151 0 0 0zm3578 -36l-69 0 -462 1254c-45,115 -78,145 -157,150l-14 0 0 39 370 0 0 -39 -53 0c-57,0 -96,-35 -96,-83 0,-34 23,-121 54,-210l246 -674 360 967 -186 0 0 39 659 0 0 -39 -145 0 -507 -1404 0 0zm1740 680c137,-8 210,-11 261,-11 327,0 553,173 553,420 0,226 -204,366 -531,366 -45,0 -140,-2 -204,-3 -170,-9 -170,-9 -420,-9l-132 0 0 -39 165 0 0 -1323 -165 0 0 -39 669 0 0 39 -196 0 0 599 0 0zm0 730c57,6 106,9 162,9 238,0 319,-90 319,-356 0,-248 -111,-352 -380,-352 -31,0 -55,3 -101,6l0 693 0 0zm-5267 -1335l96 0c221,0 318,96 318,315 0,102 -20,162 -65,207 -53,56 -136,83 -245,83l-104 0 0 -605 0 0zm0 642l103 0c140,0 194,14 253,63 72,57 106,151 106,288 0,222 -113,328 -353,328l-109 0 0 -679 0 0zm1712 679l-163 0 0 40 636 0 0 -40 -165 0 0 -1321 165 0 0 -39 -636 0 0 39 163 0 0 1321zm5547 -679l571 0 0 679 -163 0 0 40 638 0 0 -40 -164 0 0 -1318 164 0 0 -42 -638 0 0 42 163 0 0 597 -571 0 0 -597 163 0 0 -42 -639 0 0 42 163 0 0 1318 -163 0 0 40 639 0 0 -40 -163 0 0 -679zm2377 -717l-30 0 -442 1242c-39,112 -87,157 -171,157l-47 0 0 37 403 0 0 -37 -33 0c-84,0 -119,-22 -119,-65 0,-28 7,-70 20,-106l84 -235 387 0 142 403 -159 0 0 40 632 0 0 -40 -134 0 -533 -1396 0 0zm-318 951l176 -505 179 505 -355 0z"/>
   </g>
  </g>
 </g>
</svg>
