<?xml version="1.0" encoding="UTF-8"?>
<!DOCTYPE svg PUBLIC "-//W3C//DTD SVG 1.1//EN" "http://www.w3.org/Graphics/SVG/1.1/DTD/svg11.dtd">
<!-- Creator: CorelDRAW X7 -->
<svg xmlns="http://www.w3.org/2000/svg" xml:space="preserve" width="470px" height="470px" version="1.1" style="shape-rendering:geometricPrecision; text-rendering:geometricPrecision; image-rendering:optimizeQuality; fill-rule:evenodd; clip-rule:evenodd"
viewBox="0 0 5987 5987"
 xmlns:xlink="http://www.w3.org/1999/xlink">
 <defs>
  <style type="text/css">
   <![CDATA[
    .fil0 {fill:#F0EBE8;fill-rule:nonzero}
   ]]>
  </style>
 </defs>
 <g id="Слой_x0020_1">
  <metadata id="CorelCorpID_0Corel-Layer"/>
  <g id="_721756464">
   <path class="fil0" d="M2712 3220l727 0 0 -242 -80 0c0,93 -68,161 -171,161l-112 0 0 -362 120 0 0 -80 -484 0 0 80 122 0 0 362 -122 0 0 81z"/>
   <polygon class="fil0" points="3788,3221 4071,3221 4311,2777 4431,2777 4431,2697 4069,2697 4069,2777 4174,2777 3999,3100 3822,2777 3949,2777 3949,2697 3424,2697 3424,2777 3544,2777 "/>
   <polygon class="fil0" points="1265,2697 740,2697 740,2777 860,2777 1105,3221 1387,3221 1627,2777 1748,2777 1748,2697 1386,2697 1386,2777 1490,2777 1316,3100 1138,2777 1265,2777 "/>
   <path class="fil0" d="M2320 2960c-2,95 -41,195 -133,193 -88,-2 -127,-100 -126,-197 2,-101 50,-189 134,-188 83,2 127,91 125,192zm-502 -1c0,154 124,277 374,277 249,0 372,-123 372,-277 0,-152 -131,-273 -374,-273 -243,0 -372,121 -372,273z"/>
   <path class="fil0" d="M4877 2768c84,2 127,91 126,192 -2,95 -41,195 -133,193 -89,-2 -128,-100 -126,-197 2,-101 50,-189 133,-188zm-376 191c0,154 124,277 373,277 250,0 373,-123 373,-277 0,-152 -131,-273 -374,-273 -243,0 -372,121 -372,273z"/>
   <path class="fil0" d="M5457 1293l-304 304c260,402 412,881 412,1396 0,1421 -1151,2572 -2572,2572 -1420,0 -2571,-1151 -2571,-2572 0,-1420 1151,-2571 2571,-2571 517,0 997,152 1400,414l304 -304c-483,-335 -1070,-532 -1704,-532 -1653,0 -2993,1340 -2993,2993 0,1654 1340,2994 2993,2994 1654,0 2994,-1340 2994,-2994 0,-631 -196,-1217 -530,-1700z"/>
   <path class="fil0" d="M4499 118l0 84c182,98 353,214 511,345l-427 426c161,126 307,272 433,432l426 -426c131,159 247,330 345,509l82 0 0 -1370 -1370 0z"/>
  </g>
 </g>
</svg>
